<mxfile host="app.diagrams.net" modified="2021-11-03T13:34:25.493Z" agent="5.0 (Windows NT 10.0; Win64; x64) AppleWebKit/537.36 (KHTML, like Gecko) Chrome/94.0.4606.81 Safari/537.36 OPR/80.0.4170.61 (Edition Yx GX)" etag="mQaH4kk3Zxx_tqchqvGm" version="15.5.8" type="github" pages="2">
  <diagram id="1LYEiCd0jX0eeRkv5ywO" name="Page-1">
    <mxGraphModel dx="997" dy="1749" grid="1" gridSize="10" guides="1" tooltips="1" connect="1" arrows="1" fold="1" page="1" pageScale="1" pageWidth="827" pageHeight="1169" math="0" shadow="0">
      <root>
        <mxCell id="0" />
        <mxCell id="1" parent="0" />
        <mxCell id="ukAMqeBF27tBX4bTyb1z-1" value="Покупатель&lt;br&gt;" style="shape=umlActor;verticalLabelPosition=bottom;verticalAlign=top;html=1;outlineConnect=0;fillColor=#fff2cc;strokeColor=#d6b656;" parent="1" vertex="1">
          <mxGeometry x="105" y="-300" width="30" height="60" as="geometry" />
        </mxCell>
        <mxCell id="ukAMqeBF27tBX4bTyb1z-12" value="" style="edgeStyle=orthogonalEdgeStyle;rounded=0;orthogonalLoop=1;jettySize=auto;html=1;" parent="1" source="ukAMqeBF27tBX4bTyb1z-2" target="ukAMqeBF27tBX4bTyb1z-11" edge="1">
          <mxGeometry relative="1" as="geometry" />
        </mxCell>
        <mxCell id="ukAMqeBF27tBX4bTyb1z-2" value="Открыть карточку объекта" style="rounded=0;whiteSpace=wrap;html=1;fillColor=#fff2cc;strokeColor=#d6b656;" parent="1" vertex="1">
          <mxGeometry x="380" y="-70" width="120" height="60" as="geometry" />
        </mxCell>
        <mxCell id="ukAMqeBF27tBX4bTyb1z-10" value="" style="edgeStyle=orthogonalEdgeStyle;rounded=0;orthogonalLoop=1;jettySize=auto;html=1;" parent="1" source="ukAMqeBF27tBX4bTyb1z-3" target="ukAMqeBF27tBX4bTyb1z-2" edge="1">
          <mxGeometry relative="1" as="geometry" />
        </mxCell>
        <mxCell id="ukAMqeBF27tBX4bTyb1z-3" value="Выполнить фильтрацию&lt;br&gt;&amp;nbsp;списка" style="rounded=0;whiteSpace=wrap;html=1;fillColor=#fff2cc;strokeColor=#d6b656;" parent="1" vertex="1">
          <mxGeometry x="220" y="-70" width="120" height="60" as="geometry" />
        </mxCell>
        <mxCell id="ukAMqeBF27tBX4bTyb1z-9" value="" style="edgeStyle=orthogonalEdgeStyle;rounded=0;orthogonalLoop=1;jettySize=auto;html=1;" parent="1" source="ukAMqeBF27tBX4bTyb1z-4" target="ukAMqeBF27tBX4bTyb1z-3" edge="1">
          <mxGeometry relative="1" as="geometry" />
        </mxCell>
        <mxCell id="ukAMqeBF27tBX4bTyb1z-4" value="Получить список&lt;br&gt;объектов" style="rounded=0;whiteSpace=wrap;html=1;fillColor=#fff2cc;strokeColor=#d6b656;" parent="1" vertex="1">
          <mxGeometry x="60" y="-70" width="120" height="60" as="geometry" />
        </mxCell>
        <mxCell id="ukAMqeBF27tBX4bTyb1z-61" value="" style="edgeStyle=orthogonalEdgeStyle;rounded=0;orthogonalLoop=1;jettySize=auto;html=1;" parent="1" source="ukAMqeBF27tBX4bTyb1z-5" target="ukAMqeBF27tBX4bTyb1z-60" edge="1">
          <mxGeometry relative="1" as="geometry" />
        </mxCell>
        <mxCell id="ukAMqeBF27tBX4bTyb1z-5" value="Записаться на просмотр дома" style="rounded=0;whiteSpace=wrap;html=1;fillColor=#fff2cc;strokeColor=#d6b656;" parent="1" vertex="1">
          <mxGeometry x="700" y="-70" width="120" height="60" as="geometry" />
        </mxCell>
        <mxCell id="ukAMqeBF27tBX4bTyb1z-8" value="" style="endArrow=none;html=1;exitX=0.5;exitY=0;exitDx=0;exitDy=0;" parent="1" source="ukAMqeBF27tBX4bTyb1z-4" target="ukAMqeBF27tBX4bTyb1z-1" edge="1">
          <mxGeometry width="50" height="50" relative="1" as="geometry">
            <mxPoint x="410" y="20" as="sourcePoint" />
            <mxPoint x="460" y="-30" as="targetPoint" />
          </mxGeometry>
        </mxCell>
        <mxCell id="ukAMqeBF27tBX4bTyb1z-13" value="" style="edgeStyle=orthogonalEdgeStyle;rounded=0;orthogonalLoop=1;jettySize=auto;html=1;" parent="1" source="ukAMqeBF27tBX4bTyb1z-11" target="ukAMqeBF27tBX4bTyb1z-5" edge="1">
          <mxGeometry relative="1" as="geometry" />
        </mxCell>
        <mxCell id="ukAMqeBF27tBX4bTyb1z-11" value="" style="rhombus;whiteSpace=wrap;html=1;rounded=0;fillColor=#fff2cc;strokeColor=#d6b656;" parent="1" vertex="1">
          <mxGeometry x="570" y="-80" width="80" height="80" as="geometry" />
        </mxCell>
        <mxCell id="ukAMqeBF27tBX4bTyb1z-19" value="" style="edgeStyle=orthogonalEdgeStyle;rounded=0;orthogonalLoop=1;jettySize=auto;html=1;" parent="1" source="ukAMqeBF27tBX4bTyb1z-15" target="ukAMqeBF27tBX4bTyb1z-2" edge="1">
          <mxGeometry relative="1" as="geometry" />
        </mxCell>
        <mxCell id="ukAMqeBF27tBX4bTyb1z-15" value="Описание&lt;br&gt;объекта" style="html=1;dashed=0;whitespace=wrap;shape=partialRectangle;right=0;" parent="1" vertex="1">
          <mxGeometry x="390" y="50" width="100" height="30" as="geometry" />
        </mxCell>
        <mxCell id="ukAMqeBF27tBX4bTyb1z-17" value="" style="edgeStyle=orthogonalEdgeStyle;rounded=0;orthogonalLoop=1;jettySize=auto;html=1;" parent="1" source="ukAMqeBF27tBX4bTyb1z-16" target="ukAMqeBF27tBX4bTyb1z-4" edge="1">
          <mxGeometry relative="1" as="geometry" />
        </mxCell>
        <mxCell id="ukAMqeBF27tBX4bTyb1z-16" value="Объекты &lt;br&gt;недвижимости" style="html=1;dashed=0;whitespace=wrap;shape=partialRectangle;right=0;" parent="1" vertex="1">
          <mxGeometry x="70" y="50" width="100" height="30" as="geometry" />
        </mxCell>
        <mxCell id="ukAMqeBF27tBX4bTyb1z-20" value="" style="endArrow=classic;html=1;exitX=0.5;exitY=0;exitDx=0;exitDy=0;entryX=0.81;entryY=0.003;entryDx=0;entryDy=0;entryPerimeter=0;" parent="1" source="ukAMqeBF27tBX4bTyb1z-11" target="ukAMqeBF27tBX4bTyb1z-3" edge="1">
          <mxGeometry width="50" height="50" relative="1" as="geometry">
            <mxPoint x="410" y="70" as="sourcePoint" />
            <mxPoint x="460" y="20" as="targetPoint" />
            <Array as="points">
              <mxPoint x="610" y="-150" />
              <mxPoint x="317" y="-150" />
            </Array>
          </mxGeometry>
        </mxCell>
        <mxCell id="NFxwPHQR4oBNKtsv3OAb-33" style="edgeStyle=orthogonalEdgeStyle;rounded=0;orthogonalLoop=1;jettySize=auto;html=1;exitX=1;exitY=0.5;exitDx=0;exitDy=0;entryX=0.5;entryY=1;entryDx=0;entryDy=0;" parent="1" source="ukAMqeBF27tBX4bTyb1z-21" target="ukAMqeBF27tBX4bTyb1z-60" edge="1">
          <mxGeometry relative="1" as="geometry" />
        </mxCell>
        <mxCell id="ukAMqeBF27tBX4bTyb1z-21" value="Журнал запроса &lt;br&gt;на просмотр" style="html=1;dashed=0;whitespace=wrap;shape=partialRectangle;right=0;" parent="1" vertex="1">
          <mxGeometry x="710" y="200" width="100" height="30" as="geometry" />
        </mxCell>
        <mxCell id="ukAMqeBF27tBX4bTyb1z-24" value="Агент по &lt;br&gt;недвижимости" style="shape=umlActor;verticalLabelPosition=bottom;verticalAlign=top;html=1;outlineConnect=0;fillColor=#d5e8d4;strokeColor=#82b366;" parent="1" vertex="1">
          <mxGeometry x="85" y="140" width="30" height="60" as="geometry" />
        </mxCell>
        <mxCell id="ukAMqeBF27tBX4bTyb1z-28" value="" style="edgeStyle=orthogonalEdgeStyle;rounded=0;orthogonalLoop=1;jettySize=auto;html=1;" parent="1" source="ukAMqeBF27tBX4bTyb1z-25" target="ukAMqeBF27tBX4bTyb1z-27" edge="1">
          <mxGeometry relative="1" as="geometry" />
        </mxCell>
        <mxCell id="ukAMqeBF27tBX4bTyb1z-25" value="Журнал запросов&amp;nbsp;&lt;br&gt;на просмотр" style="html=1;dashed=0;whitespace=wrap;shape=partialRectangle;right=0;" parent="1" vertex="1">
          <mxGeometry x="50" y="570" width="100" height="30" as="geometry" />
        </mxCell>
        <mxCell id="ukAMqeBF27tBX4bTyb1z-34" value="" style="edgeStyle=orthogonalEdgeStyle;rounded=0;orthogonalLoop=1;jettySize=auto;html=1;" parent="1" source="ukAMqeBF27tBX4bTyb1z-26" target="ukAMqeBF27tBX4bTyb1z-33" edge="1">
          <mxGeometry relative="1" as="geometry" />
        </mxCell>
        <mxCell id="ukAMqeBF27tBX4bTyb1z-26" value="Отправить запрос на просмотр дома владельцу" style="rounded=0;whiteSpace=wrap;html=1;fillColor=#d5e8d4;strokeColor=#82b366;" parent="1" vertex="1">
          <mxGeometry x="200" y="440" width="120" height="60" as="geometry" />
        </mxCell>
        <mxCell id="ukAMqeBF27tBX4bTyb1z-29" value="" style="edgeStyle=orthogonalEdgeStyle;rounded=0;orthogonalLoop=1;jettySize=auto;html=1;" parent="1" source="ukAMqeBF27tBX4bTyb1z-27" target="ukAMqeBF27tBX4bTyb1z-26" edge="1">
          <mxGeometry relative="1" as="geometry" />
        </mxCell>
        <mxCell id="ukAMqeBF27tBX4bTyb1z-27" value="Запросить разрешение на просмотр недвижимости" style="rounded=0;whiteSpace=wrap;html=1;fillColor=#d5e8d4;strokeColor=#82b366;" parent="1" vertex="1">
          <mxGeometry x="40" y="440" width="120" height="60" as="geometry" />
        </mxCell>
        <mxCell id="ukAMqeBF27tBX4bTyb1z-32" value="" style="endArrow=none;html=1;exitX=0.5;exitY=0;exitDx=0;exitDy=0;" parent="1" source="ukAMqeBF27tBX4bTyb1z-27" target="ukAMqeBF27tBX4bTyb1z-24" edge="1">
          <mxGeometry width="50" height="50" relative="1" as="geometry">
            <mxPoint x="390" y="460" as="sourcePoint" />
            <mxPoint x="440" y="410" as="targetPoint" />
          </mxGeometry>
        </mxCell>
        <mxCell id="ukAMqeBF27tBX4bTyb1z-59" value="" style="edgeStyle=orthogonalEdgeStyle;rounded=0;orthogonalLoop=1;jettySize=auto;html=1;" parent="1" source="ukAMqeBF27tBX4bTyb1z-33" target="ukAMqeBF27tBX4bTyb1z-58" edge="1">
          <mxGeometry relative="1" as="geometry" />
        </mxCell>
        <mxCell id="ukAMqeBF27tBX4bTyb1z-33" value="Получение разрешения на просмотр недвижимости" style="rounded=0;whiteSpace=wrap;html=1;fillColor=#d5e8d4;strokeColor=#82b366;" parent="1" vertex="1">
          <mxGeometry x="360" y="440" width="120" height="60" as="geometry" />
        </mxCell>
        <mxCell id="ukAMqeBF27tBX4bTyb1z-35" value="Продавец" style="shape=umlActor;verticalLabelPosition=bottom;verticalAlign=top;html=1;outlineConnect=0;fillColor=#dae8fc;strokeColor=#6c8ebf;" parent="1" vertex="1">
          <mxGeometry x="1565" y="600" width="30" height="60" as="geometry" />
        </mxCell>
        <mxCell id="ukAMqeBF27tBX4bTyb1z-44" value="" style="edgeStyle=orthogonalEdgeStyle;rounded=0;orthogonalLoop=1;jettySize=auto;html=1;" parent="1" source="ukAMqeBF27tBX4bTyb1z-41" target="ukAMqeBF27tBX4bTyb1z-43" edge="1">
          <mxGeometry relative="1" as="geometry" />
        </mxCell>
        <mxCell id="ukAMqeBF27tBX4bTyb1z-41" value="Выставляет свою&lt;br&gt;недвижимость в агенстве" style="rounded=0;whiteSpace=wrap;html=1;fillColor=#dae8fc;strokeColor=#6c8ebf;" parent="1" vertex="1">
          <mxGeometry x="1520" y="940" width="120" height="60" as="geometry" />
        </mxCell>
        <mxCell id="ukAMqeBF27tBX4bTyb1z-42" value="" style="endArrow=none;html=1;exitX=0.5;exitY=0;exitDx=0;exitDy=0;" parent="1" source="ukAMqeBF27tBX4bTyb1z-41" target="ukAMqeBF27tBX4bTyb1z-35" edge="1">
          <mxGeometry width="50" height="50" relative="1" as="geometry">
            <mxPoint x="1310" y="800" as="sourcePoint" />
            <mxPoint x="1360" y="750" as="targetPoint" />
          </mxGeometry>
        </mxCell>
        <mxCell id="ukAMqeBF27tBX4bTyb1z-48" value="" style="edgeStyle=orthogonalEdgeStyle;rounded=0;orthogonalLoop=1;jettySize=auto;html=1;" parent="1" source="ukAMqeBF27tBX4bTyb1z-43" target="ukAMqeBF27tBX4bTyb1z-47" edge="1">
          <mxGeometry relative="1" as="geometry" />
        </mxCell>
        <mxCell id="ukAMqeBF27tBX4bTyb1z-43" value="Получает запрос на просмотр своей недвижимости" style="whiteSpace=wrap;html=1;rounded=0;fillColor=#dae8fc;strokeColor=#6c8ebf;" parent="1" vertex="1">
          <mxGeometry x="1320" y="940" width="120" height="60" as="geometry" />
        </mxCell>
        <mxCell id="ukAMqeBF27tBX4bTyb1z-45" value="Объекты &lt;br&gt;недвижимости" style="html=1;dashed=0;whitespace=wrap;shape=partialRectangle;right=0;" parent="1" vertex="1">
          <mxGeometry x="1514" y="1190" width="100" height="30" as="geometry" />
        </mxCell>
        <mxCell id="ukAMqeBF27tBX4bTyb1z-55" value="" style="edgeStyle=orthogonalEdgeStyle;rounded=0;orthogonalLoop=1;jettySize=auto;html=1;" parent="1" source="ukAMqeBF27tBX4bTyb1z-47" target="ukAMqeBF27tBX4bTyb1z-54" edge="1">
          <mxGeometry relative="1" as="geometry" />
        </mxCell>
        <mxCell id="ukAMqeBF27tBX4bTyb1z-47" value="Дает разрешение на просмотр недвижимости" style="whiteSpace=wrap;html=1;rounded=0;fillColor=#dae8fc;strokeColor=#6c8ebf;" parent="1" vertex="1">
          <mxGeometry x="1120" y="940" width="120" height="60" as="geometry" />
        </mxCell>
        <mxCell id="NFxwPHQR4oBNKtsv3OAb-27" value="" style="edgeStyle=orthogonalEdgeStyle;rounded=0;orthogonalLoop=1;jettySize=auto;html=1;" parent="1" source="ukAMqeBF27tBX4bTyb1z-54" target="NFxwPHQR4oBNKtsv3OAb-26" edge="1">
          <mxGeometry relative="1" as="geometry" />
        </mxCell>
        <mxCell id="ukAMqeBF27tBX4bTyb1z-54" value="Заключает договор&lt;br&gt;о продаже своей недвижимости" style="whiteSpace=wrap;html=1;rounded=0;strokeColor=#6c8ebf;fillColor=#dae8fc;" parent="1" vertex="1">
          <mxGeometry x="920" y="940" width="120" height="60" as="geometry" />
        </mxCell>
        <mxCell id="ukAMqeBF27tBX4bTyb1z-56" value="Продажа&lt;br&gt;" style="html=1;dashed=0;whitespace=wrap;shape=partialRectangle;right=0;" parent="1" vertex="1">
          <mxGeometry x="930" y="1169" width="100" height="30" as="geometry" />
        </mxCell>
        <mxCell id="NFxwPHQR4oBNKtsv3OAb-12" value="" style="edgeStyle=orthogonalEdgeStyle;rounded=0;orthogonalLoop=1;jettySize=auto;html=1;" parent="1" source="ukAMqeBF27tBX4bTyb1z-58" target="NFxwPHQR4oBNKtsv3OAb-11" edge="1">
          <mxGeometry relative="1" as="geometry" />
        </mxCell>
        <mxCell id="ukAMqeBF27tBX4bTyb1z-58" value="Предоставляет возможность клиенту просмотреть недвижимость" style="whiteSpace=wrap;html=1;rounded=0;strokeColor=#82b366;fillColor=#d5e8d4;" parent="1" vertex="1">
          <mxGeometry x="560" y="435" width="120" height="70" as="geometry" />
        </mxCell>
        <mxCell id="NFxwPHQR4oBNKtsv3OAb-2" value="" style="edgeStyle=orthogonalEdgeStyle;rounded=0;orthogonalLoop=1;jettySize=auto;html=1;" parent="1" source="ukAMqeBF27tBX4bTyb1z-60" target="NFxwPHQR4oBNKtsv3OAb-1" edge="1">
          <mxGeometry relative="1" as="geometry" />
        </mxCell>
        <mxCell id="ukAMqeBF27tBX4bTyb1z-60" value="Получает разрешение на просмотр дома" style="whiteSpace=wrap;html=1;rounded=0;strokeColor=#d6b656;fillColor=#fff2cc;" parent="1" vertex="1">
          <mxGeometry x="900" y="-70" width="120" height="60" as="geometry" />
        </mxCell>
        <mxCell id="NFxwPHQR4oBNKtsv3OAb-4" value="" style="edgeStyle=orthogonalEdgeStyle;rounded=0;orthogonalLoop=1;jettySize=auto;html=1;" parent="1" source="NFxwPHQR4oBNKtsv3OAb-1" target="NFxwPHQR4oBNKtsv3OAb-3" edge="1">
          <mxGeometry relative="1" as="geometry" />
        </mxCell>
        <mxCell id="NFxwPHQR4oBNKtsv3OAb-1" value="Просматривает с агентом недвижимость" style="whiteSpace=wrap;html=1;rounded=0;strokeColor=#d6b656;fillColor=#fff2cc;" parent="1" vertex="1">
          <mxGeometry x="1100" y="-70" width="120" height="60" as="geometry" />
        </mxCell>
        <mxCell id="NFxwPHQR4oBNKtsv3OAb-8" value="" style="edgeStyle=orthogonalEdgeStyle;rounded=0;orthogonalLoop=1;jettySize=auto;html=1;" parent="1" source="NFxwPHQR4oBNKtsv3OAb-3" target="NFxwPHQR4oBNKtsv3OAb-7" edge="1">
          <mxGeometry relative="1" as="geometry" />
        </mxCell>
        <mxCell id="NFxwPHQR4oBNKtsv3OAb-3" value="Заключает договор" style="whiteSpace=wrap;html=1;rounded=0;strokeColor=#d6b656;fillColor=#fff2cc;" parent="1" vertex="1">
          <mxGeometry x="1300" y="-70" width="120" height="60" as="geometry" />
        </mxCell>
        <mxCell id="NFxwPHQR4oBNKtsv3OAb-5" value="Продажа&lt;br&gt;" style="html=1;dashed=0;whitespace=wrap;shape=partialRectangle;right=0;" parent="1" vertex="1">
          <mxGeometry x="1310" y="200" width="100" height="30" as="geometry" />
        </mxCell>
        <mxCell id="Z2e167N5dwhoWMd68_NS-3" style="edgeStyle=orthogonalEdgeStyle;rounded=0;orthogonalLoop=1;jettySize=auto;html=1;" parent="1" source="NFxwPHQR4oBNKtsv3OAb-7" target="Z2e167N5dwhoWMd68_NS-1" edge="1">
          <mxGeometry relative="1" as="geometry" />
        </mxCell>
        <mxCell id="NFxwPHQR4oBNKtsv3OAb-7" value="Оплачивает" style="whiteSpace=wrap;html=1;rounded=0;strokeColor=#d6b656;fillColor=#fff2cc;" parent="1" vertex="1">
          <mxGeometry x="1500" y="-70" width="120" height="60" as="geometry" />
        </mxCell>
        <mxCell id="NFxwPHQR4oBNKtsv3OAb-9" value="Транзакции" style="html=1;dashed=0;whitespace=wrap;shape=partialRectangle;right=0;" parent="1" vertex="1">
          <mxGeometry x="1510" y="200" width="100" height="30" as="geometry" />
        </mxCell>
        <mxCell id="NFxwPHQR4oBNKtsv3OAb-16" value="" style="edgeStyle=orthogonalEdgeStyle;rounded=0;orthogonalLoop=1;jettySize=auto;html=1;" parent="1" source="NFxwPHQR4oBNKtsv3OAb-11" target="NFxwPHQR4oBNKtsv3OAb-15" edge="1">
          <mxGeometry relative="1" as="geometry" />
        </mxCell>
        <mxCell id="NFxwPHQR4oBNKtsv3OAb-11" value="Просматривает с покупателем недвижимость" style="whiteSpace=wrap;html=1;rounded=0;strokeColor=#82b366;fillColor=#d5e8d4;" parent="1" vertex="1">
          <mxGeometry x="760" y="440" width="120" height="60" as="geometry" />
        </mxCell>
        <mxCell id="NFxwPHQR4oBNKtsv3OAb-20" value="" style="edgeStyle=orthogonalEdgeStyle;rounded=0;orthogonalLoop=1;jettySize=auto;html=1;" parent="1" source="NFxwPHQR4oBNKtsv3OAb-15" target="NFxwPHQR4oBNKtsv3OAb-19" edge="1">
          <mxGeometry relative="1" as="geometry" />
        </mxCell>
        <mxCell id="NFxwPHQR4oBNKtsv3OAb-15" value="Заключает договор о покупке недвижимости" style="whiteSpace=wrap;html=1;rounded=0;strokeColor=#82b366;fillColor=#d5e8d4;" parent="1" vertex="1">
          <mxGeometry x="960" y="440" width="120" height="60" as="geometry" />
        </mxCell>
        <mxCell id="NFxwPHQR4oBNKtsv3OAb-22" value="" style="edgeStyle=orthogonalEdgeStyle;rounded=0;orthogonalLoop=1;jettySize=auto;html=1;" parent="1" source="NFxwPHQR4oBNKtsv3OAb-19" target="NFxwPHQR4oBNKtsv3OAb-21" edge="1">
          <mxGeometry relative="1" as="geometry" />
        </mxCell>
        <mxCell id="NFxwPHQR4oBNKtsv3OAb-19" value="Оформляет оплату" style="whiteSpace=wrap;html=1;rounded=0;strokeColor=#82b366;fillColor=#d5e8d4;" parent="1" vertex="1">
          <mxGeometry x="1160" y="440" width="120" height="60" as="geometry" />
        </mxCell>
        <mxCell id="NFxwPHQR4oBNKtsv3OAb-21" value="Получение подтверждения оплаты" style="whiteSpace=wrap;html=1;rounded=0;strokeColor=#82b366;fillColor=#d5e8d4;" parent="1" vertex="1">
          <mxGeometry x="1360" y="440" width="120" height="60" as="geometry" />
        </mxCell>
        <mxCell id="NFxwPHQR4oBNKtsv3OAb-25" value="" style="edgeStyle=orthogonalEdgeStyle;rounded=0;orthogonalLoop=1;jettySize=auto;html=1;" parent="1" source="NFxwPHQR4oBNKtsv3OAb-23" target="NFxwPHQR4oBNKtsv3OAb-21" edge="1">
          <mxGeometry relative="1" as="geometry" />
        </mxCell>
        <mxCell id="NFxwPHQR4oBNKtsv3OAb-23" value="Счет агентства" style="html=1;dashed=0;whitespace=wrap;shape=partialRectangle;right=0;" parent="1" vertex="1">
          <mxGeometry x="1370" y="570" width="100" height="30" as="geometry" />
        </mxCell>
        <mxCell id="NFxwPHQR4oBNKtsv3OAb-26" value="Получение своей части прибыли" style="whiteSpace=wrap;html=1;rounded=0;strokeColor=#6c8ebf;fillColor=#dae8fc;" parent="1" vertex="1">
          <mxGeometry x="720" y="940" width="120" height="60" as="geometry" />
        </mxCell>
        <mxCell id="NFxwPHQR4oBNKtsv3OAb-29" value="" style="edgeStyle=orthogonalEdgeStyle;rounded=0;orthogonalLoop=1;jettySize=auto;html=1;" parent="1" source="NFxwPHQR4oBNKtsv3OAb-28" target="NFxwPHQR4oBNKtsv3OAb-26" edge="1">
          <mxGeometry relative="1" as="geometry" />
        </mxCell>
        <mxCell id="NFxwPHQR4oBNKtsv3OAb-28" value="Счет агентства" style="html=1;dashed=0;whitespace=wrap;shape=partialRectangle;right=0;" parent="1" vertex="1">
          <mxGeometry x="730" y="1050" width="100" height="30" as="geometry" />
        </mxCell>
        <mxCell id="NFxwPHQR4oBNKtsv3OAb-34" value="Продажа&lt;br&gt;" style="html=1;dashed=0;whitespace=wrap;shape=partialRectangle;right=0;" parent="1" vertex="1">
          <mxGeometry x="970" y="720" width="100" height="30" as="geometry" />
        </mxCell>
        <mxCell id="NFxwPHQR4oBNKtsv3OAb-36" value="" style="endArrow=classic;html=1;exitX=0.5;exitY=1;exitDx=0;exitDy=0;" parent="1" source="NFxwPHQR4oBNKtsv3OAb-15" edge="1">
          <mxGeometry width="50" height="50" relative="1" as="geometry">
            <mxPoint x="560" y="540" as="sourcePoint" />
            <mxPoint x="1020" y="570" as="targetPoint" />
            <Array as="points" />
          </mxGeometry>
        </mxCell>
        <mxCell id="NFxwPHQR4oBNKtsv3OAb-37" value="Журнал запросов&amp;nbsp;&lt;br&gt;на просмотр" style="html=1;dashed=0;whitespace=wrap;shape=partialRectangle;right=0;" parent="1" vertex="1">
          <mxGeometry x="320" y="690" width="100" height="30" as="geometry" />
        </mxCell>
        <mxCell id="NFxwPHQR4oBNKtsv3OAb-39" value="" style="endArrow=classic;html=1;exitX=1;exitY=0.5;exitDx=0;exitDy=0;entryX=0.5;entryY=1;entryDx=0;entryDy=0;" parent="1" source="NFxwPHQR4oBNKtsv3OAb-37" target="ukAMqeBF27tBX4bTyb1z-33" edge="1">
          <mxGeometry width="50" height="50" relative="1" as="geometry">
            <mxPoint x="560" y="540" as="sourcePoint" />
            <mxPoint x="610" y="490" as="targetPoint" />
            <Array as="points">
              <mxPoint x="420" y="585" />
            </Array>
          </mxGeometry>
        </mxCell>
        <mxCell id="NFxwPHQR4oBNKtsv3OAb-41" value="Журнал запросов&lt;br&gt;на просмотр" style="html=1;dashed=0;whitespace=wrap;shape=partialRectangle;right=0;" parent="1" vertex="1">
          <mxGeometry x="1280" y="1169" width="100" height="30" as="geometry" />
        </mxCell>
        <mxCell id="NFxwPHQR4oBNKtsv3OAb-43" value="" style="endArrow=classic;html=1;exitX=1;exitY=0.5;exitDx=0;exitDy=0;entryX=0.5;entryY=1;entryDx=0;entryDy=0;" parent="1" source="NFxwPHQR4oBNKtsv3OAb-41" target="ukAMqeBF27tBX4bTyb1z-43" edge="1">
          <mxGeometry width="50" height="50" relative="1" as="geometry">
            <mxPoint x="1160" y="900" as="sourcePoint" />
            <mxPoint x="1210" y="850" as="targetPoint" />
            <Array as="points">
              <mxPoint x="1380" y="1065" />
            </Array>
          </mxGeometry>
        </mxCell>
        <mxCell id="NFxwPHQR4oBNKtsv3OAb-46" value="Журнал запросов&lt;br&gt;на просмотр" style="html=1;dashed=0;whitespace=wrap;shape=partialRectangle;right=0;direction=east;" parent="1" vertex="1">
          <mxGeometry x="570" y="730" width="100" height="30" as="geometry" />
        </mxCell>
        <mxCell id="l8b5dJD9Is-tIM0htqa9-3" value="Запрос" style="swimlane;fontStyle=0;childLayout=stackLayout;horizontal=1;startSize=26;horizontalStack=0;resizeParent=1;resizeParentMax=0;resizeLast=0;collapsible=1;marginBottom=0;align=center;fontSize=14;" parent="1" vertex="1">
          <mxGeometry x="680" y="40" width="160" height="116" as="geometry" />
        </mxCell>
        <mxCell id="l8b5dJD9Is-tIM0htqa9-4" value="Дата" style="text;strokeColor=none;fillColor=none;spacingLeft=4;spacingRight=4;overflow=hidden;rotatable=0;points=[[0,0.5],[1,0.5]];portConstraint=eastwest;fontSize=12;" parent="l8b5dJD9Is-tIM0htqa9-3" vertex="1">
          <mxGeometry y="26" width="160" height="30" as="geometry" />
        </mxCell>
        <mxCell id="l8b5dJD9Is-tIM0htqa9-5" value="Ссылка на объект" style="text;strokeColor=none;fillColor=none;spacingLeft=4;spacingRight=4;overflow=hidden;rotatable=0;points=[[0,0.5],[1,0.5]];portConstraint=eastwest;fontSize=12;" parent="l8b5dJD9Is-tIM0htqa9-3" vertex="1">
          <mxGeometry y="56" width="160" height="30" as="geometry" />
        </mxCell>
        <mxCell id="l8b5dJD9Is-tIM0htqa9-6" value="Признак подтверждения" style="text;strokeColor=none;fillColor=none;spacingLeft=4;spacingRight=4;overflow=hidden;rotatable=0;points=[[0,0.5],[1,0.5]];portConstraint=eastwest;fontSize=12;" parent="l8b5dJD9Is-tIM0htqa9-3" vertex="1">
          <mxGeometry y="86" width="160" height="30" as="geometry" />
        </mxCell>
        <mxCell id="l8b5dJD9Is-tIM0htqa9-8" value="" style="endArrow=classic;html=1;rounded=0;exitX=0.5;exitY=1;exitDx=0;exitDy=0;entryX=0.5;entryY=0;entryDx=0;entryDy=0;" parent="1" source="ukAMqeBF27tBX4bTyb1z-5" target="l8b5dJD9Is-tIM0htqa9-3" edge="1">
          <mxGeometry width="50" height="50" relative="1" as="geometry">
            <mxPoint x="480" y="210" as="sourcePoint" />
            <mxPoint x="530" y="160" as="targetPoint" />
          </mxGeometry>
        </mxCell>
        <mxCell id="l8b5dJD9Is-tIM0htqa9-9" value="" style="endArrow=classic;html=1;rounded=0;exitX=0.492;exitY=1.093;exitDx=0;exitDy=0;exitPerimeter=0;" parent="1" source="l8b5dJD9Is-tIM0htqa9-6" edge="1">
          <mxGeometry width="50" height="50" relative="1" as="geometry">
            <mxPoint x="480" y="210" as="sourcePoint" />
            <mxPoint x="759" y="200" as="targetPoint" />
          </mxGeometry>
        </mxCell>
        <mxCell id="l8b5dJD9Is-tIM0htqa9-10" value="Запрос" style="swimlane;fontStyle=0;childLayout=stackLayout;horizontal=1;startSize=26;horizontalStack=0;resizeParent=1;resizeParentMax=0;resizeLast=0;collapsible=1;marginBottom=0;align=center;fontSize=14;" parent="1" vertex="1">
          <mxGeometry x="940" y="570" width="160" height="116" as="geometry" />
        </mxCell>
        <mxCell id="l8b5dJD9Is-tIM0htqa9-11" value="Дата" style="text;strokeColor=none;fillColor=none;spacingLeft=4;spacingRight=4;overflow=hidden;rotatable=0;points=[[0,0.5],[1,0.5]];portConstraint=eastwest;fontSize=12;" parent="l8b5dJD9Is-tIM0htqa9-10" vertex="1">
          <mxGeometry y="26" width="160" height="30" as="geometry" />
        </mxCell>
        <mxCell id="l8b5dJD9Is-tIM0htqa9-12" value="Ссылка на договор" style="text;strokeColor=none;fillColor=none;spacingLeft=4;spacingRight=4;overflow=hidden;rotatable=0;points=[[0,0.5],[1,0.5]];portConstraint=eastwest;fontSize=12;" parent="l8b5dJD9Is-tIM0htqa9-10" vertex="1">
          <mxGeometry y="56" width="160" height="30" as="geometry" />
        </mxCell>
        <mxCell id="l8b5dJD9Is-tIM0htqa9-13" value="Признак подтверждения" style="text;strokeColor=none;fillColor=none;spacingLeft=4;spacingRight=4;overflow=hidden;rotatable=0;points=[[0,0.5],[1,0.5]];portConstraint=eastwest;fontSize=12;" parent="l8b5dJD9Is-tIM0htqa9-10" vertex="1">
          <mxGeometry y="86" width="160" height="30" as="geometry" />
        </mxCell>
        <mxCell id="l8b5dJD9Is-tIM0htqa9-14" value="" style="endArrow=classic;html=1;rounded=0;entryX=0.5;entryY=0;entryDx=0;entryDy=0;" parent="1" target="NFxwPHQR4oBNKtsv3OAb-34" edge="1">
          <mxGeometry width="50" height="50" relative="1" as="geometry">
            <mxPoint x="1020" y="690" as="sourcePoint" />
            <mxPoint x="940" y="640" as="targetPoint" />
          </mxGeometry>
        </mxCell>
        <mxCell id="l8b5dJD9Is-tIM0htqa9-15" value="Продажа" style="swimlane;fontStyle=0;childLayout=stackLayout;horizontal=1;startSize=26;horizontalStack=0;resizeParent=1;resizeParentMax=0;resizeLast=0;collapsible=1;marginBottom=0;align=center;fontSize=14;" parent="1" vertex="1">
          <mxGeometry x="1280" y="25" width="160" height="146" as="geometry" />
        </mxCell>
        <mxCell id="l8b5dJD9Is-tIM0htqa9-16" value="Дата" style="text;strokeColor=none;fillColor=none;spacingLeft=4;spacingRight=4;overflow=hidden;rotatable=0;points=[[0,0.5],[1,0.5]];portConstraint=eastwest;fontSize=12;" parent="l8b5dJD9Is-tIM0htqa9-15" vertex="1">
          <mxGeometry y="26" width="160" height="30" as="geometry" />
        </mxCell>
        <mxCell id="l8b5dJD9Is-tIM0htqa9-17" value="Ссылка на договор" style="text;strokeColor=none;fillColor=none;spacingLeft=4;spacingRight=4;overflow=hidden;rotatable=0;points=[[0,0.5],[1,0.5]];portConstraint=eastwest;fontSize=12;" parent="l8b5dJD9Is-tIM0htqa9-15" vertex="1">
          <mxGeometry y="56" width="160" height="30" as="geometry" />
        </mxCell>
        <mxCell id="l8b5dJD9Is-tIM0htqa9-18" value="Описание договора" style="text;strokeColor=none;fillColor=none;spacingLeft=4;spacingRight=4;overflow=hidden;rotatable=0;points=[[0,0.5],[1,0.5]];portConstraint=eastwest;fontSize=12;" parent="l8b5dJD9Is-tIM0htqa9-15" vertex="1">
          <mxGeometry y="86" width="160" height="30" as="geometry" />
        </mxCell>
        <mxCell id="l8b5dJD9Is-tIM0htqa9-19" value="Признак подтверждения" style="text;strokeColor=none;fillColor=none;spacingLeft=4;spacingRight=4;overflow=hidden;rotatable=0;points=[[0,0.5],[1,0.5]];portConstraint=eastwest;fontSize=12;" parent="l8b5dJD9Is-tIM0htqa9-15" vertex="1">
          <mxGeometry y="116" width="160" height="30" as="geometry" />
        </mxCell>
        <mxCell id="l8b5dJD9Is-tIM0htqa9-20" value="" style="endArrow=classic;html=1;rounded=0;exitX=0.5;exitY=1;exitDx=0;exitDy=0;entryX=0.5;entryY=0;entryDx=0;entryDy=0;" parent="1" source="NFxwPHQR4oBNKtsv3OAb-3" target="l8b5dJD9Is-tIM0htqa9-15" edge="1">
          <mxGeometry width="50" height="50" relative="1" as="geometry">
            <mxPoint x="1170" y="190" as="sourcePoint" />
            <mxPoint x="1220" y="140" as="targetPoint" />
          </mxGeometry>
        </mxCell>
        <mxCell id="l8b5dJD9Is-tIM0htqa9-21" value="" style="endArrow=classic;html=1;rounded=0;entryX=0.5;entryY=0;entryDx=0;entryDy=0;" parent="1" target="NFxwPHQR4oBNKtsv3OAb-5" edge="1">
          <mxGeometry width="50" height="50" relative="1" as="geometry">
            <mxPoint x="1360" y="170" as="sourcePoint" />
            <mxPoint x="1220" y="140" as="targetPoint" />
          </mxGeometry>
        </mxCell>
        <mxCell id="l8b5dJD9Is-tIM0htqa9-29" value="" style="edgeStyle=orthogonalEdgeStyle;rounded=0;orthogonalLoop=1;jettySize=auto;html=1;" parent="1" source="l8b5dJD9Is-tIM0htqa9-23" target="NFxwPHQR4oBNKtsv3OAb-9" edge="1">
          <mxGeometry relative="1" as="geometry" />
        </mxCell>
        <mxCell id="l8b5dJD9Is-tIM0htqa9-23" value="Транзакция" style="swimlane;fontStyle=0;childLayout=stackLayout;horizontal=1;startSize=26;horizontalStack=0;resizeParent=1;resizeParentMax=0;resizeLast=0;collapsible=1;marginBottom=0;align=center;fontSize=14;" parent="1" vertex="1">
          <mxGeometry x="1480" y="23" width="160" height="150" as="geometry" />
        </mxCell>
        <mxCell id="l8b5dJD9Is-tIM0htqa9-24" value="Дата" style="text;strokeColor=none;fillColor=none;spacingLeft=4;spacingRight=4;overflow=hidden;rotatable=0;points=[[0,0.5],[1,0.5]];portConstraint=eastwest;fontSize=12;" parent="l8b5dJD9Is-tIM0htqa9-23" vertex="1">
          <mxGeometry y="26" width="160" height="30" as="geometry" />
        </mxCell>
        <mxCell id="l8b5dJD9Is-tIM0htqa9-25" value="Транзакция зачисления" style="text;strokeColor=none;fillColor=none;spacingLeft=4;spacingRight=4;overflow=hidden;rotatable=0;points=[[0,0.5],[1,0.5]];portConstraint=eastwest;fontSize=12;" parent="l8b5dJD9Is-tIM0htqa9-23" vertex="1">
          <mxGeometry y="56" width="160" height="30" as="geometry" />
        </mxCell>
        <mxCell id="l8b5dJD9Is-tIM0htqa9-26" value="Ссылка перевода на счет " style="text;strokeColor=none;fillColor=none;spacingLeft=4;spacingRight=4;overflow=hidden;rotatable=0;points=[[0,0.5],[1,0.5]];portConstraint=eastwest;fontSize=12;" parent="l8b5dJD9Is-tIM0htqa9-23" vertex="1">
          <mxGeometry y="86" width="160" height="34" as="geometry" />
        </mxCell>
        <mxCell id="l8b5dJD9Is-tIM0htqa9-27" value="Признак подтверждения" style="text;strokeColor=none;fillColor=none;spacingLeft=4;spacingRight=4;overflow=hidden;rotatable=0;points=[[0,0.5],[1,0.5]];portConstraint=eastwest;fontSize=12;" parent="l8b5dJD9Is-tIM0htqa9-23" vertex="1">
          <mxGeometry y="120" width="160" height="30" as="geometry" />
        </mxCell>
        <mxCell id="l8b5dJD9Is-tIM0htqa9-28" value="" style="endArrow=classic;html=1;rounded=0;exitX=0.5;exitY=1;exitDx=0;exitDy=0;entryX=0.5;entryY=0;entryDx=0;entryDy=0;" parent="1" source="NFxwPHQR4oBNKtsv3OAb-7" target="l8b5dJD9Is-tIM0htqa9-23" edge="1">
          <mxGeometry width="50" height="50" relative="1" as="geometry">
            <mxPoint x="1170" y="90" as="sourcePoint" />
            <mxPoint x="1220" y="40" as="targetPoint" />
          </mxGeometry>
        </mxCell>
        <mxCell id="l8b5dJD9Is-tIM0htqa9-30" value="Запрос" style="swimlane;fontStyle=0;childLayout=stackLayout;horizontal=1;startSize=26;horizontalStack=0;resizeParent=1;resizeParentMax=0;resizeLast=0;collapsible=1;marginBottom=0;align=center;fontSize=14;" parent="1" vertex="1">
          <mxGeometry x="530" y="530" width="180" height="140" as="geometry" />
        </mxCell>
        <mxCell id="l8b5dJD9Is-tIM0htqa9-31" value="Дата" style="text;strokeColor=none;fillColor=none;spacingLeft=4;spacingRight=4;overflow=hidden;rotatable=0;points=[[0,0.5],[1,0.5]];portConstraint=eastwest;fontSize=12;" parent="l8b5dJD9Is-tIM0htqa9-30" vertex="1">
          <mxGeometry y="26" width="180" height="30" as="geometry" />
        </mxCell>
        <mxCell id="l8b5dJD9Is-tIM0htqa9-32" value="Ссылка на запись просмотра&#xa;объекта" style="text;strokeColor=none;fillColor=none;spacingLeft=4;spacingRight=4;overflow=hidden;rotatable=0;points=[[0,0.5],[1,0.5]];portConstraint=eastwest;fontSize=12;align=center;" parent="l8b5dJD9Is-tIM0htqa9-30" vertex="1">
          <mxGeometry y="56" width="180" height="44" as="geometry" />
        </mxCell>
        <mxCell id="l8b5dJD9Is-tIM0htqa9-33" value="Признак подтверждения &#xa;записи" style="text;strokeColor=none;fillColor=none;spacingLeft=4;spacingRight=4;overflow=hidden;rotatable=0;points=[[0,0.5],[1,0.5]];portConstraint=eastwest;fontSize=12;align=center;" parent="l8b5dJD9Is-tIM0htqa9-30" vertex="1">
          <mxGeometry y="100" width="180" height="40" as="geometry" />
        </mxCell>
        <mxCell id="l8b5dJD9Is-tIM0htqa9-37" value="" style="endArrow=classic;html=1;rounded=0;exitX=0.5;exitY=1;exitDx=0;exitDy=0;entryX=0.5;entryY=0;entryDx=0;entryDy=0;" parent="1" source="ukAMqeBF27tBX4bTyb1z-58" target="l8b5dJD9Is-tIM0htqa9-30" edge="1">
          <mxGeometry width="50" height="50" relative="1" as="geometry">
            <mxPoint x="510" y="680" as="sourcePoint" />
            <mxPoint x="560" y="630" as="targetPoint" />
          </mxGeometry>
        </mxCell>
        <mxCell id="l8b5dJD9Is-tIM0htqa9-38" value="" style="endArrow=classic;html=1;rounded=0;entryX=0.5;entryY=0;entryDx=0;entryDy=0;" parent="1" target="NFxwPHQR4oBNKtsv3OAb-46" edge="1">
          <mxGeometry width="50" height="50" relative="1" as="geometry">
            <mxPoint x="620" y="670" as="sourcePoint" />
            <mxPoint x="560" y="630" as="targetPoint" />
          </mxGeometry>
        </mxCell>
        <mxCell id="l8b5dJD9Is-tIM0htqa9-39" value="Запрос" style="swimlane;fontStyle=0;childLayout=stackLayout;horizontal=1;startSize=26;horizontalStack=0;resizeParent=1;resizeParentMax=0;resizeLast=0;collapsible=1;marginBottom=0;align=center;fontSize=14;" parent="1" vertex="1">
          <mxGeometry x="180" y="527" width="160" height="116" as="geometry" />
        </mxCell>
        <mxCell id="l8b5dJD9Is-tIM0htqa9-40" value="Дата" style="text;strokeColor=none;fillColor=none;spacingLeft=4;spacingRight=4;overflow=hidden;rotatable=0;points=[[0,0.5],[1,0.5]];portConstraint=eastwest;fontSize=12;" parent="l8b5dJD9Is-tIM0htqa9-39" vertex="1">
          <mxGeometry y="26" width="160" height="30" as="geometry" />
        </mxCell>
        <mxCell id="l8b5dJD9Is-tIM0htqa9-41" value="Владелец" style="text;strokeColor=none;fillColor=none;spacingLeft=4;spacingRight=4;overflow=hidden;rotatable=0;points=[[0,0.5],[1,0.5]];portConstraint=eastwest;fontSize=12;" parent="l8b5dJD9Is-tIM0htqa9-39" vertex="1">
          <mxGeometry y="56" width="160" height="30" as="geometry" />
        </mxCell>
        <mxCell id="l8b5dJD9Is-tIM0htqa9-42" value="Признак подтверждения" style="text;strokeColor=none;fillColor=none;spacingLeft=4;spacingRight=4;overflow=hidden;rotatable=0;points=[[0,0.5],[1,0.5]];portConstraint=eastwest;fontSize=12;" parent="l8b5dJD9Is-tIM0htqa9-39" vertex="1">
          <mxGeometry y="86" width="160" height="30" as="geometry" />
        </mxCell>
        <mxCell id="l8b5dJD9Is-tIM0htqa9-44" value="" style="endArrow=classic;html=1;rounded=0;exitX=0.5;exitY=1;exitDx=0;exitDy=0;entryX=0.5;entryY=0;entryDx=0;entryDy=0;" parent="1" source="ukAMqeBF27tBX4bTyb1z-26" target="l8b5dJD9Is-tIM0htqa9-39" edge="1">
          <mxGeometry width="50" height="50" relative="1" as="geometry">
            <mxPoint x="570" y="680" as="sourcePoint" />
            <mxPoint x="620" y="630" as="targetPoint" />
          </mxGeometry>
        </mxCell>
        <mxCell id="l8b5dJD9Is-tIM0htqa9-45" value="" style="endArrow=classic;html=1;rounded=0;exitX=0.473;exitY=1.1;exitDx=0;exitDy=0;exitPerimeter=0;entryX=0;entryY=0.5;entryDx=0;entryDy=0;edgeStyle=orthogonalEdgeStyle;" parent="1" source="l8b5dJD9Is-tIM0htqa9-42" target="NFxwPHQR4oBNKtsv3OAb-37" edge="1">
          <mxGeometry width="50" height="50" relative="1" as="geometry">
            <mxPoint x="570" y="680" as="sourcePoint" />
            <mxPoint x="620" y="630" as="targetPoint" />
            <Array as="points">
              <mxPoint x="256" y="705" />
            </Array>
          </mxGeometry>
        </mxCell>
        <mxCell id="l8b5dJD9Is-tIM0htqa9-46" value="Запрос" style="swimlane;fontStyle=0;childLayout=stackLayout;horizontal=1;startSize=26;horizontalStack=0;resizeParent=1;resizeParentMax=0;resizeLast=0;collapsible=1;marginBottom=0;align=center;fontSize=14;" parent="1" vertex="1">
          <mxGeometry x="1474" y="1030" width="180" height="130" as="geometry" />
        </mxCell>
        <mxCell id="l8b5dJD9Is-tIM0htqa9-47" value="Дата" style="text;strokeColor=none;fillColor=none;spacingLeft=4;spacingRight=4;overflow=hidden;rotatable=0;points=[[0,0.5],[1,0.5]];portConstraint=eastwest;fontSize=12;" parent="l8b5dJD9Is-tIM0htqa9-46" vertex="1">
          <mxGeometry y="26" width="180" height="30" as="geometry" />
        </mxCell>
        <mxCell id="l8b5dJD9Is-tIM0htqa9-48" value="Ссылка агентству на &#xa;разрешение выставить объект" style="text;strokeColor=none;fillColor=none;spacingLeft=4;spacingRight=4;overflow=hidden;rotatable=0;points=[[0,0.5],[1,0.5]];portConstraint=eastwest;fontSize=12;" parent="l8b5dJD9Is-tIM0htqa9-46" vertex="1">
          <mxGeometry y="56" width="180" height="44" as="geometry" />
        </mxCell>
        <mxCell id="l8b5dJD9Is-tIM0htqa9-49" value="Признак подтверждения" style="text;strokeColor=none;fillColor=none;spacingLeft=4;spacingRight=4;overflow=hidden;rotatable=0;points=[[0,0.5],[1,0.5]];portConstraint=eastwest;fontSize=12;" parent="l8b5dJD9Is-tIM0htqa9-46" vertex="1">
          <mxGeometry y="100" width="180" height="30" as="geometry" />
        </mxCell>
        <mxCell id="l8b5dJD9Is-tIM0htqa9-50" value="" style="endArrow=classic;html=1;rounded=0;exitX=0.5;exitY=1;exitDx=0;exitDy=0;entryX=0.5;entryY=0;entryDx=0;entryDy=0;edgeStyle=orthogonalEdgeStyle;" parent="1" source="ukAMqeBF27tBX4bTyb1z-41" target="l8b5dJD9Is-tIM0htqa9-46" edge="1">
          <mxGeometry width="50" height="50" relative="1" as="geometry">
            <mxPoint x="1410" y="1160" as="sourcePoint" />
            <mxPoint x="1460" y="1110" as="targetPoint" />
          </mxGeometry>
        </mxCell>
        <mxCell id="l8b5dJD9Is-tIM0htqa9-51" value="" style="endArrow=classic;html=1;rounded=0;entryX=0.5;entryY=0;entryDx=0;entryDy=0;" parent="1" target="ukAMqeBF27tBX4bTyb1z-45" edge="1">
          <mxGeometry width="50" height="50" relative="1" as="geometry">
            <mxPoint x="1564" y="1160" as="sourcePoint" />
            <mxPoint x="1460" y="1110" as="targetPoint" />
          </mxGeometry>
        </mxCell>
        <mxCell id="l8b5dJD9Is-tIM0htqa9-52" value="Запрос" style="swimlane;fontStyle=0;childLayout=stackLayout;horizontal=1;startSize=26;horizontalStack=0;resizeParent=1;resizeParentMax=0;resizeLast=0;collapsible=1;marginBottom=0;align=center;fontSize=14;" parent="1" vertex="1">
          <mxGeometry x="1100" y="1030" width="160" height="124" as="geometry" />
        </mxCell>
        <mxCell id="l8b5dJD9Is-tIM0htqa9-53" value="Дата" style="text;strokeColor=none;fillColor=none;spacingLeft=4;spacingRight=4;overflow=hidden;rotatable=0;points=[[0,0.5],[1,0.5]];portConstraint=eastwest;fontSize=12;" parent="l8b5dJD9Is-tIM0htqa9-52" vertex="1">
          <mxGeometry y="26" width="160" height="30" as="geometry" />
        </mxCell>
        <mxCell id="l8b5dJD9Is-tIM0htqa9-54" value="Отвечает на запрос" style="text;strokeColor=none;fillColor=none;spacingLeft=4;spacingRight=4;overflow=hidden;rotatable=0;points=[[0,0.5],[1,0.5]];portConstraint=eastwest;fontSize=12;" parent="l8b5dJD9Is-tIM0htqa9-52" vertex="1">
          <mxGeometry y="56" width="160" height="34" as="geometry" />
        </mxCell>
        <mxCell id="l8b5dJD9Is-tIM0htqa9-61" value=" Заносит свое решение" style="text;strokeColor=none;fillColor=none;spacingLeft=4;spacingRight=4;overflow=hidden;rotatable=0;points=[[0,0.5],[1,0.5]];portConstraint=eastwest;fontSize=12;" parent="l8b5dJD9Is-tIM0htqa9-52" vertex="1">
          <mxGeometry y="90" width="160" height="34" as="geometry" />
        </mxCell>
        <mxCell id="l8b5dJD9Is-tIM0htqa9-56" value="" style="endArrow=classic;html=1;rounded=0;exitX=0.5;exitY=1;exitDx=0;exitDy=0;entryX=0.5;entryY=0;entryDx=0;entryDy=0;" parent="1" source="ukAMqeBF27tBX4bTyb1z-47" target="l8b5dJD9Is-tIM0htqa9-52" edge="1">
          <mxGeometry width="50" height="50" relative="1" as="geometry">
            <mxPoint x="1000" y="910" as="sourcePoint" />
            <mxPoint x="1050" y="860" as="targetPoint" />
          </mxGeometry>
        </mxCell>
        <mxCell id="l8b5dJD9Is-tIM0htqa9-57" value="" style="endArrow=classic;html=1;rounded=0;entryX=0;entryY=0.5;entryDx=0;entryDy=0;edgeStyle=orthogonalEdgeStyle;exitX=0.498;exitY=0.976;exitDx=0;exitDy=0;exitPerimeter=0;" parent="1" source="l8b5dJD9Is-tIM0htqa9-61" target="NFxwPHQR4oBNKtsv3OAb-41" edge="1">
          <mxGeometry width="50" height="50" relative="1" as="geometry">
            <mxPoint x="1181" y="1160" as="sourcePoint" />
            <mxPoint x="1050" y="1060" as="targetPoint" />
            <Array as="points">
              <mxPoint x="1181" y="1153" />
              <mxPoint x="1181" y="1184" />
            </Array>
          </mxGeometry>
        </mxCell>
        <mxCell id="l8b5dJD9Is-tIM0htqa9-62" value="Запрос" style="swimlane;fontStyle=0;childLayout=stackLayout;horizontal=1;startSize=26;horizontalStack=0;resizeParent=1;resizeParentMax=0;resizeLast=0;collapsible=1;marginBottom=0;align=center;fontSize=14;" parent="1" vertex="1">
          <mxGeometry x="900" y="1020" width="160" height="124" as="geometry" />
        </mxCell>
        <mxCell id="l8b5dJD9Is-tIM0htqa9-63" value="Дата" style="text;strokeColor=none;fillColor=none;spacingLeft=4;spacingRight=4;overflow=hidden;rotatable=0;points=[[0,0.5],[1,0.5]];portConstraint=eastwest;fontSize=12;" parent="l8b5dJD9Is-tIM0htqa9-62" vertex="1">
          <mxGeometry y="26" width="160" height="30" as="geometry" />
        </mxCell>
        <mxCell id="l8b5dJD9Is-tIM0htqa9-64" value="Ссылка на договор " style="text;strokeColor=none;fillColor=none;spacingLeft=4;spacingRight=4;overflow=hidden;rotatable=0;points=[[0,0.5],[1,0.5]];portConstraint=eastwest;fontSize=12;" parent="l8b5dJD9Is-tIM0htqa9-62" vertex="1">
          <mxGeometry y="56" width="160" height="34" as="geometry" />
        </mxCell>
        <mxCell id="l8b5dJD9Is-tIM0htqa9-65" value="Признак подтверждения" style="text;strokeColor=none;fillColor=none;spacingLeft=4;spacingRight=4;overflow=hidden;rotatable=0;points=[[0,0.5],[1,0.5]];portConstraint=eastwest;fontSize=12;" parent="l8b5dJD9Is-tIM0htqa9-62" vertex="1">
          <mxGeometry y="90" width="160" height="34" as="geometry" />
        </mxCell>
        <mxCell id="l8b5dJD9Is-tIM0htqa9-67" value="" style="endArrow=classic;html=1;rounded=0;exitX=0.5;exitY=1;exitDx=0;exitDy=0;entryX=0.5;entryY=0;entryDx=0;entryDy=0;" parent="1" source="ukAMqeBF27tBX4bTyb1z-54" target="l8b5dJD9Is-tIM0htqa9-62" edge="1">
          <mxGeometry width="50" height="50" relative="1" as="geometry">
            <mxPoint x="1000" y="1010" as="sourcePoint" />
            <mxPoint x="1050" y="960" as="targetPoint" />
          </mxGeometry>
        </mxCell>
        <mxCell id="l8b5dJD9Is-tIM0htqa9-68" value="" style="endArrow=classic;html=1;rounded=0;entryX=0.5;entryY=0;entryDx=0;entryDy=0;" parent="1" target="ukAMqeBF27tBX4bTyb1z-56" edge="1">
          <mxGeometry width="50" height="50" relative="1" as="geometry">
            <mxPoint x="980" y="1140" as="sourcePoint" />
            <mxPoint x="1080" y="1060" as="targetPoint" />
          </mxGeometry>
        </mxCell>
        <mxCell id="Z2e167N5dwhoWMd68_NS-1" value="Счет агентства" style="html=1;dashed=0;whitespace=wrap;shape=partialRectangle;right=0;" parent="1" vertex="1">
          <mxGeometry x="1680" y="200" width="100" height="30" as="geometry" />
        </mxCell>
      </root>
    </mxGraphModel>
  </diagram>
  <diagram id="FX1tqjNt8bnX8bdwUls9" name="Page-2">
    <mxGraphModel dx="1038" dy="556" grid="1" gridSize="10" guides="1" tooltips="1" connect="1" arrows="1" fold="1" page="1" pageScale="1" pageWidth="827" pageHeight="1169" math="0" shadow="0">
      <root>
        <mxCell id="ayo5eb-q_4DYUek-VEk4-0" />
        <mxCell id="ayo5eb-q_4DYUek-VEk4-1" parent="ayo5eb-q_4DYUek-VEk4-0" />
      </root>
    </mxGraphModel>
  </diagram>
</mxfile>
